<?xml version="1.0" encoding="UTF-8"?>
<svg version="1.1" xmlns="http://www.w3.org/2000/svg" width="644" height="644">
<path d="M0 0 C1.00406364 -0.00295142 2.00812727 -0.00590285 3.04261708 -0.00894371 C6.41011107 -0.01761193 9.77757062 -0.01921326 13.14507484 -0.02082157 C15.5826102 -0.02555406 18.02014477 -0.03070518 20.45767844 -0.03623921 C26.45607209 -0.04867552 32.45445592 -0.05642796 38.45285843 -0.06213799 C45.63914997 -0.06921021 52.82542873 -0.08196753 60.01171209 -0.09468719 C78.20108818 -0.12649874 96.39047273 -0.1463646 114.5798673 -0.16397271 C119.5064395 -0.16874298 124.43301144 -0.17375119 129.35958338 -0.17877793 C159.94742038 -0.20981883 190.53525957 -0.23643152 221.12310791 -0.25319672 C228.20551368 -0.25713383 235.2879194 -0.26114571 242.37032509 -0.2652216 C243.69014711 -0.2659741 243.69014711 -0.2659741 245.03663221 -0.2667418 C273.57788198 -0.28316757 302.11904614 -0.32163885 330.66025378 -0.3725087 C360.00827058 -0.42472121 389.35624177 -0.45750955 418.70430597 -0.46477425 C422.84848876 -0.46580284 426.99267147 -0.46703915 431.13685417 -0.46839428 C431.95244987 -0.46865232 432.76804557 -0.46891035 433.6083563 -0.46917621 C446.73523723 -0.47387168 459.86200523 -0.49880774 472.98884389 -0.53114571 C486.17963455 -0.56316787 499.37029796 -0.57315767 512.56112288 -0.56071376 C520.3976869 -0.55397398 528.233814 -0.56392853 536.07030979 -0.59784076 C541.9212789 -0.62131308 547.77193284 -0.61344267 553.62292393 -0.59337295 C555.99028534 -0.5901395 558.35768685 -0.59707916 560.72498135 -0.61517017 C563.94262384 -0.63827084 567.1580912 -0.62435132 570.37568665 -0.60127258 C571.7551035 -0.62448693 571.7551035 -0.62448693 573.16238737 -0.64817026 C581.51822745 -0.51583655 587.2809507 3.16909976 593.56368446 8.4523077 C602.93431125 19.64500081 602.93431125 19.64500081 602.94478697 26.21109152 C602.94857161 27.07020734 602.95235625 27.92932316 602.95625558 28.81447279 C602.95534366 29.76575887 602.95443173 30.71704494 602.95349216 31.69715786 C602.95644359 32.70611705 602.95939501 33.71507623 602.96243587 34.75460994 C602.97117802 38.17488709 602.97271214 41.59513062 602.97431374 45.01541805 C602.97904123 47.47664868 602.98419166 49.93787852 602.98973137 52.39910746 C603.00221461 58.47939985 603.00993639 64.55968245 603.01563016 70.63998367 C603.02267902 77.91946435 603.03543745 85.19893225 603.04817935 92.47840478 C603.08006034 110.91298856 603.09987105 129.3475808 603.11746487 147.78218293 C603.12223134 152.77435876 603.12724024 157.76653434 603.1322701 162.75870991 C603.16331643 193.7373031 603.1899391 224.71589843 603.20668888 255.69450283 C603.21062624 262.87451335 603.21463805 270.05452382 603.21871376 277.23453426 C603.21946626 278.57259811 603.21946626 278.57259811 603.22023397 279.93769356 C603.23665134 308.85855378 603.27510559 337.77932939 603.32600086 366.70014799 C603.37821368 396.4237747 603.41100225 426.14735635 603.41826641 455.87102985 C603.41929503 460.0687107 603.42053135 464.26639147 603.42188644 468.46407223 C603.4222735 469.70330736 603.4222735 469.70330736 603.42266838 470.96757755 C603.42736493 484.26773651 603.45230652 497.56778406 603.48463787 510.8679013 C603.51666167 524.23641661 603.52664933 537.60480636 603.51420593 550.97335547 C603.50746562 558.91653218 603.51742346 566.85927784 603.55133293 574.80238723 C603.57480344 580.73297088 603.5669359 586.66324356 603.54686511 592.59384888 C603.54363132 594.99369079 603.55057331 597.39357223 603.56866234 599.79334813 C603.59175858 603.05487262 603.57784613 606.31425044 603.55476475 609.57572842 C603.57024098 610.50828516 603.58571722 611.4408419 603.60166243 612.40165794 C603.47029271 620.80726372 599.81787141 626.56726106 594.50118446 632.8898077 C583.30750335 642.26126166 583.30750335 642.26126166 576.74124998 642.26975954 C575.88187793 642.27328795 575.02250589 642.27681637 574.13709226 642.28045171 C573.18552034 642.27925394 572.23394842 642.27805616 571.25354099 642.27682209 C570.24428221 642.27947392 569.23502343 642.28212574 568.19518104 642.28485793 C564.77389319 642.29258827 561.35264101 642.29311152 557.93134499 642.29370785 C555.46940178 642.29772002 553.00745924 642.30215783 550.5455175 642.3069874 C544.46349406 642.31772526 538.38148169 642.32371535 532.29945138 642.32769628 C525.01794924 642.33269956 517.73645833 642.34342621 510.45496281 642.35417802 C492.85211862 642.37982713 475.24927005 642.39484748 457.64641253 642.40768848 C451.81682835 642.41194165 445.9872445 642.41650734 440.15766072 642.4212718 C409.17416905 642.44653146 378.19067687 642.46858383 347.20717716 642.48099995 C340.02612684 642.48392137 332.84507654 642.48688887 325.66402626 642.48990536 C324.77185293 642.49027627 323.87967961 642.49064718 322.96047073 642.49102932 C294.032633 642.50318544 265.1048561 642.53412938 236.17704695 642.57582688 C206.4475469 642.61860191 176.71807898 642.6452394 146.98854732 642.65047466 C142.79054574 642.65121513 138.59254422 642.65212582 134.39454269 642.65313244 C133.15520642 642.65341836 133.15520642 642.65341836 131.89083306 642.65371006 C118.58677363 642.65722549 105.2827903 642.67753208 91.97875883 642.70392908 C78.60802894 642.73005854 65.23738709 642.73780758 51.86663532 642.72682779 C43.92107818 642.72084593 35.97581943 642.72878889 28.03030739 642.75665862 C22.09971834 642.77592286 16.16934673 642.76910725 10.23874439 642.75208946 C7.83757751 642.74927677 5.43638286 642.75495783 3.03526085 642.76990239 C-0.22543127 642.78895905 -3.48462673 642.77725128 -6.74528408 642.75784016 C-8.14805971 642.77711399 -8.14805971 642.77711399 -9.57917425 642.79677719 C-17.46416629 642.69343573 -22.94124888 639.93207436 -28.87381554 634.8273077 C-38.30819526 623.86302857 -38.30819526 623.86302857 -38.31741804 618.0417251 C-38.32120268 617.17661938 -38.32498733 616.31151367 -38.32888666 615.42019263 C-38.32797473 614.46220333 -38.3270628 613.50421403 -38.32612324 612.51719475 C-38.32907466 611.50118247 -38.33202608 610.48517019 -38.33506694 609.43836966 C-38.34380925 605.99410964 -38.34534323 602.54988299 -38.34694481 599.10561275 C-38.35167228 596.62717024 -38.35682271 594.1487285 -38.36236244 591.67028767 C-38.37484575 585.54745537 -38.38256748 579.4246328 -38.38826123 573.30179174 C-38.39531002 565.97144401 -38.40806841 558.64110897 -38.42081042 551.31076934 C-38.4526909 532.74785401 -38.47250165 514.18493028 -38.49009594 495.62199673 C-38.49486232 490.59532719 -38.49987124 485.5686579 -38.50490117 480.54198861 C-38.53594657 449.35089505 -38.56256988 418.15979938 -38.57931995 386.96869469 C-38.58325732 379.73951813 -38.58726913 372.51034161 -38.59134483 365.28116512 C-38.5918465 364.38301243 -38.59234817 363.48485973 -38.59286504 362.55949028 C-38.60928403 333.43763334 -38.64774072 304.31586041 -38.69863194 275.19404479 C-38.75083812 245.26527249 -38.78363233 215.33654492 -38.79089749 185.40772616 C-38.79192611 181.18161537 -38.79316243 176.95550466 -38.79451752 172.72939396 C-38.79477555 171.89763718 -38.79503359 171.0658804 -38.79529945 170.20891886 C-38.79999702 156.81557947 -38.82494279 143.42235067 -38.85726895 130.02905269 C-38.88928345 116.56869788 -38.89928404 103.10846775 -38.886837 89.64807939 C-38.88009382 81.64914902 -38.8900708 73.65064654 -38.923964 65.65178294 C-38.94741728 59.68142 -38.93957828 53.71153207 -38.91949619 47.74113882 C-38.91625989 45.32381826 -38.92321878 42.90645854 -38.94129341 40.48920339 C-38.96435495 37.20650977 -38.95050025 33.92595519 -38.92739582 30.64330864 C-38.94287205 29.7017075 -38.95834829 28.76010636 -38.9742935 27.78997186 C-38.84586226 19.53979473 -35.3096748 14.49908573 -29.80740929 8.58121395 C-29.08682335 7.96117489 -28.36623741 7.34113583 -27.62381554 6.7023077 C-26.53906944 5.74517879 -26.53906944 5.74517879 -25.43240929 4.76871395 C-18.05122767 -0.58424733 -8.7379593 -0.00862107 0 0 Z " fill="#808080" transform="translate(38.18631553649902,1.8601922988891602)"/>
<path d="M0 0 C45.87 0 91.74 0 139 0 C139 23.1 139 46.2 139 70 C162.1 70 185.2 70 209 70 C209 92.77 209 115.54 209 139 C231.77 139 254.54 139 278 139 C278 93.13 278 47.26 278 0 C324.2 0 370.4 0 418 0 C418 114.84 418 229.68 418 348 C371.8 348 325.6 348 278 348 C278 325.23 278 302.46 278 279 C255.23 279 232.46 279 209 279 C209 255.9 209 232.8 209 209 C185.9 209 162.8 209 139 209 C139 254.87 139 300.74 139 348 C93.13 348 47.26 348 0 348 C0 233.16 0 118.32 0 0 Z " fill="#FEFEFE" transform="translate(111,149)"/>
<path d="M0 0 C1.00406364 -0.00295142 2.00812727 -0.00590285 3.04261708 -0.00894371 C6.41011107 -0.01761193 9.77757062 -0.01921326 13.14507484 -0.02082157 C15.5826102 -0.02555406 18.02014477 -0.03070518 20.45767844 -0.03623921 C26.45607209 -0.04867552 32.45445592 -0.05642796 38.45285843 -0.06213799 C45.63914997 -0.06921021 52.82542873 -0.08196753 60.01171209 -0.09468719 C78.20108818 -0.12649874 96.39047273 -0.1463646 114.5798673 -0.16397271 C119.5064395 -0.16874298 124.43301144 -0.17375119 129.35958338 -0.17877793 C159.94742038 -0.20981883 190.53525957 -0.23643152 221.12310791 -0.25319672 C228.20551368 -0.25713383 235.2879194 -0.26114571 242.37032509 -0.2652216 C243.69014711 -0.2659741 243.69014711 -0.2659741 245.03663221 -0.2667418 C273.57788198 -0.28316757 302.11904614 -0.32163885 330.66025378 -0.3725087 C360.00827058 -0.42472121 389.35624177 -0.45750955 418.70430597 -0.46477425 C422.84848876 -0.46580284 426.99267147 -0.46703915 431.13685417 -0.46839428 C431.95244987 -0.46865232 432.76804557 -0.46891035 433.6083563 -0.46917621 C446.73523723 -0.47387168 459.86200523 -0.49880774 472.98884389 -0.53114571 C486.17963455 -0.56316787 499.37029796 -0.57315767 512.56112288 -0.56071376 C520.3976869 -0.55397398 528.233814 -0.56392853 536.07030979 -0.59784076 C541.9212789 -0.62131308 547.77193284 -0.61344267 553.62292393 -0.59337295 C555.99028534 -0.5901395 558.35768685 -0.59707916 560.72498135 -0.61517017 C563.94262384 -0.63827084 567.1580912 -0.62435132 570.37568665 -0.60127258 C571.7551035 -0.62448693 571.7551035 -0.62448693 573.16238737 -0.64817026 C581.51822745 -0.51583655 587.2809507 3.16909976 593.56368446 8.4523077 C602.93431125 19.64500081 602.93431125 19.64500081 602.94478697 26.21109152 C602.94857161 27.07020734 602.95235625 27.92932316 602.95625558 28.81447279 C602.95534366 29.76575887 602.95443173 30.71704494 602.95349216 31.69715786 C602.95644359 32.70611705 602.95939501 33.71507623 602.96243587 34.75460994 C602.97117802 38.17488709 602.97271214 41.59513062 602.97431374 45.01541805 C602.97904123 47.47664868 602.98419166 49.93787852 602.98973137 52.39910746 C603.00221461 58.47939985 603.00993639 64.55968245 603.01563016 70.63998367 C603.02267902 77.91946435 603.03543745 85.19893225 603.04817935 92.47840478 C603.08006034 110.91298856 603.09987105 129.3475808 603.11746487 147.78218293 C603.12223134 152.77435876 603.12724024 157.76653434 603.1322701 162.75870991 C603.16331643 193.7373031 603.1899391 224.71589843 603.20668888 255.69450283 C603.21062624 262.87451335 603.21463805 270.05452382 603.21871376 277.23453426 C603.21946626 278.57259811 603.21946626 278.57259811 603.22023397 279.93769356 C603.23665134 308.85855378 603.27510559 337.77932939 603.32600086 366.70014799 C603.37821368 396.4237747 603.41100225 426.14735635 603.41826641 455.87102985 C603.41929503 460.0687107 603.42053135 464.26639147 603.42188644 468.46407223 C603.4222735 469.70330736 603.4222735 469.70330736 603.42266838 470.96757755 C603.42736493 484.26773651 603.45230652 497.56778406 603.48463787 510.8679013 C603.51666167 524.23641661 603.52664933 537.60480636 603.51420593 550.97335547 C603.50746562 558.91653218 603.51742346 566.85927784 603.55133293 574.80238723 C603.57480344 580.73297088 603.5669359 586.66324356 603.54686511 592.59384888 C603.54363132 594.99369079 603.55057331 597.39357223 603.56866234 599.79334813 C603.59175858 603.05487262 603.57784613 606.31425044 603.55476475 609.57572842 C603.57024098 610.50828516 603.58571722 611.4408419 603.60166243 612.40165794 C603.47029271 620.80726372 599.81787141 626.56726106 594.50118446 632.8898077 C583.30750335 642.26126166 583.30750335 642.26126166 576.74124998 642.26975954 C575.88187793 642.27328795 575.02250589 642.27681637 574.13709226 642.28045171 C573.18552034 642.27925394 572.23394842 642.27805616 571.25354099 642.27682209 C570.24428221 642.27947392 569.23502343 642.28212574 568.19518104 642.28485793 C564.77389319 642.29258827 561.35264101 642.29311152 557.93134499 642.29370785 C555.46940178 642.29772002 553.00745924 642.30215783 550.5455175 642.3069874 C544.46349406 642.31772526 538.38148169 642.32371535 532.29945138 642.32769628 C525.01794924 642.33269956 517.73645833 642.34342621 510.45496281 642.35417802 C492.85211862 642.37982713 475.24927005 642.39484748 457.64641253 642.40768848 C451.81682835 642.41194165 445.9872445 642.41650734 440.15766072 642.4212718 C409.17416905 642.44653146 378.19067687 642.46858383 347.20717716 642.48099995 C340.02612684 642.48392137 332.84507654 642.48688887 325.66402626 642.48990536 C324.77185293 642.49027627 323.87967961 642.49064718 322.96047073 642.49102932 C294.032633 642.50318544 265.1048561 642.53412938 236.17704695 642.57582688 C206.4475469 642.61860191 176.71807898 642.6452394 146.98854732 642.65047466 C142.79054574 642.65121513 138.59254422 642.65212582 134.39454269 642.65313244 C133.15520642 642.65341836 133.15520642 642.65341836 131.89083306 642.65371006 C118.58677363 642.65722549 105.2827903 642.67753208 91.97875883 642.70392908 C78.60802894 642.73005854 65.23738709 642.73780758 51.86663532 642.72682779 C43.92107818 642.72084593 35.97581943 642.72878889 28.03030739 642.75665862 C22.09971834 642.77592286 16.16934673 642.76910725 10.23874439 642.75208946 C7.83757751 642.74927677 5.43638286 642.75495783 3.03526085 642.76990239 C-0.22543127 642.78895905 -3.48462673 642.77725128 -6.74528408 642.75784016 C-8.14805971 642.77711399 -8.14805971 642.77711399 -9.57917425 642.79677719 C-17.46416629 642.69343573 -22.94124888 639.93207436 -28.87381554 634.8273077 C-38.30819526 623.86302857 -38.30819526 623.86302857 -38.31741804 618.0417251 C-38.32120268 617.17661938 -38.32498733 616.31151367 -38.32888666 615.42019263 C-38.32797473 614.46220333 -38.3270628 613.50421403 -38.32612324 612.51719475 C-38.32907466 611.50118247 -38.33202608 610.48517019 -38.33506694 609.43836966 C-38.34380925 605.99410964 -38.34534323 602.54988299 -38.34694481 599.10561275 C-38.35167228 596.62717024 -38.35682271 594.1487285 -38.36236244 591.67028767 C-38.37484575 585.54745537 -38.38256748 579.4246328 -38.38826123 573.30179174 C-38.39531002 565.97144401 -38.40806841 558.64110897 -38.42081042 551.31076934 C-38.4526909 532.74785401 -38.47250165 514.18493028 -38.49009594 495.62199673 C-38.49486232 490.59532719 -38.49987124 485.5686579 -38.50490117 480.54198861 C-38.53594657 449.35089505 -38.56256988 418.15979938 -38.57931995 386.96869469 C-38.58325732 379.73951813 -38.58726913 372.51034161 -38.59134483 365.28116512 C-38.5918465 364.38301243 -38.59234817 363.48485973 -38.59286504 362.55949028 C-38.60928403 333.43763334 -38.64774072 304.31586041 -38.69863194 275.19404479 C-38.75083812 245.26527249 -38.78363233 215.33654492 -38.79089749 185.40772616 C-38.79192611 181.18161537 -38.79316243 176.95550466 -38.79451752 172.72939396 C-38.79477555 171.89763718 -38.79503359 171.0658804 -38.79529945 170.20891886 C-38.79999702 156.81557947 -38.82494279 143.42235067 -38.85726895 130.02905269 C-38.88928345 116.56869788 -38.89928404 103.10846775 -38.886837 89.64807939 C-38.88009382 81.64914902 -38.8900708 73.65064654 -38.923964 65.65178294 C-38.94741728 59.68142 -38.93957828 53.71153207 -38.91949619 47.74113882 C-38.91625989 45.32381826 -38.92321878 42.90645854 -38.94129341 40.48920339 C-38.96435495 37.20650977 -38.95050025 33.92595519 -38.92739582 30.64330864 C-38.94287205 29.7017075 -38.95834829 28.76010636 -38.9742935 27.78997186 C-38.84586226 19.53979473 -35.3096748 14.49908573 -29.80740929 8.58121395 C-29.08682335 7.96117489 -28.36623741 7.34113583 -27.62381554 6.7023077 C-26.53906944 5.74517879 -26.53906944 5.74517879 -25.43240929 4.76871395 C-18.05122767 -0.58424733 -8.7379593 -0.00862107 0 0 Z M-19.18631554 24.1398077 C-20.32160918 26.41039499 -20.31219556 27.63848729 -20.31396604 30.15913659 C-20.316982 31.00663279 -20.31999797 31.85412898 -20.32310534 32.72730687 C-20.32133586 33.66558307 -20.31956639 34.60385927 -20.3177433 35.57056808 C-20.31979594 36.56582989 -20.32184857 37.5610917 -20.3239634 38.58651295 C-20.32966989 41.96015038 -20.32817169 45.33374744 -20.32675743 48.70738888 C-20.32933898 51.13505942 -20.33235154 53.56272954 -20.33576083 55.99039906 C-20.34300779 61.98752221 -20.34553465 67.98463158 -20.34608989 73.98175775 C-20.34700204 81.16144746 -20.35366514 88.34112889 -20.36043671 95.52081504 C-20.37651413 112.87584016 -20.38240185 130.23086441 -20.38718546 147.58589563 C-20.38951955 155.79192614 -20.39312198 163.99795594 -20.39688084 172.20398589 C-20.40971754 200.28039005 -20.4204369 228.35679381 -20.42388344 256.43320084 C-20.42410507 258.19642808 -20.42432686 259.95965533 -20.42454879 261.72288258 C-20.42476943 263.49042891 -20.42498991 265.25797524 -20.42521024 267.02552158 C-20.4256528 270.57167359 -20.42609991 274.11782561 -20.42654991 277.66397762 C-20.4266593 278.5432204 -20.42676869 279.42246318 -20.4268814 280.32834968 C-20.43051326 308.84761215 -20.44643758 337.36684922 -20.46974028 365.88610196 C-20.49431805 396.02083448 -20.50805531 426.15555247 -20.50925136 456.2902953 C-20.50942282 459.59622904 -20.50963825 462.90216277 -20.50988579 466.2080965 C-20.50994156 467.02214202 -20.50999733 467.83618754 -20.51005478 468.6749011 C-20.51120699 481.79376079 -20.52224336 494.91259448 -20.53677284 508.03144538 C-20.5511158 521.20941759 -20.55438731 534.38735636 -20.54633287 547.56533424 C-20.54186625 555.40056931 -20.54577824 563.23569667 -20.56157137 571.07091766 C-20.57242626 576.91228941 -20.56771287 582.75357951 -20.5567995 588.59495356 C-20.55482811 590.96508965 -20.55798668 593.33523637 -20.56664386 595.70535747 C-20.57762772 598.91427024 -20.57032597 602.12262742 -20.55825233 605.3315239 C-20.56584753 606.2627766 -20.57344272 607.1940293 -20.58126807 608.15350178 C-20.53235534 614.12950762 -19.63288183 617.3744802 -15.60361904 621.92871249 C-11.70206605 623.88343276 -7.81176146 623.5497175 -3.5094595 623.51733112 C-2.01310525 623.52387161 -2.01310525 623.52387161 -0.48652163 623.53054422 C2.88304592 623.54156235 6.25220956 623.53104779 9.62177467 623.52075863 C12.05117299 623.5242126 14.48056974 623.52897539 16.90996319 623.53494036 C22.20579506 623.54488499 27.5015059 623.54543584 32.79733276 623.53779888 C40.67231016 623.52647335 48.5472099 623.53224122 56.42218673 623.5414238 C70.48536042 623.55724101 84.5484933 623.55584386 98.6116709 623.54718707 C110.91901926 623.53964806 123.22635265 623.5376667 135.53370285 623.541255 C136.34926052 623.54148415 137.16481819 623.54171331 138.00508973 623.54194941 C141.31550025 623.54288338 144.62591075 623.54383858 147.93632125 623.5448287 C179.00802115 623.55401134 210.07969501 623.54567654 241.15139089 623.52953801 C268.77036272 623.51530191 296.38929307 623.5165733 324.00826454 623.53092098 C355.02068709 623.54697756 386.03308661 623.55335884 417.04551274 623.54408419 C420.35029192 623.54312201 423.65507112 623.54218349 426.95985031 623.541255 C428.18047909 623.54089915 428.18047909 623.54089915 429.42576703 623.54053611 C441.72614988 623.53712054 454.02651612 623.54112042 466.32689667 623.54869366 C480.31069465 623.5572603 494.29444533 623.55515083 508.27823739 623.53885143 C516.10903353 623.53002554 523.9397273 623.52949195 531.77052084 623.54078995 C537.60851596 623.54828541 543.4464201 623.5401887 549.28440488 623.52586623 C551.6531322 623.52250011 554.02187315 623.5242532 556.39059179 623.53149359 C559.59758918 623.54054841 562.80402003 623.53132821 566.01098728 623.51733112 C566.94166829 623.52435462 567.8723493 623.53137812 568.83123276 623.53861445 C573.60678871 623.49663983 577.03811467 623.39507692 580.81368446 620.1398077 C584.66391548 615.67255794 584.23564447 610.94341178 584.19679451 605.34269714 C584.20175403 604.3442734 584.20671354 603.34584966 584.21182334 602.31717065 C584.22484091 598.95071699 584.21637511 595.58465596 584.20809364 592.2181921 C584.21297961 589.78864269 584.21916804 587.3590956 584.22655153 584.9295525 C584.23956917 579.63646877 584.24319297 574.34350105 584.23859215 569.05041218 C584.23176832 561.17946937 584.24200702 553.3086133 584.25554971 545.43768254 C584.28048325 530.56364022 584.28497761 515.68963374 584.28308374 500.81557388 C584.28171169 489.33166115 584.28552331 477.84776088 584.2930088 466.36385059 C584.29405913 464.71508496 584.29510675 463.06631932 584.29615167 461.41755367 C584.29693068 460.18993148 584.29693068 460.18993148 584.29772544 458.93750884 C584.29824558 458.11761321 584.29876572 457.29771759 584.29930162 456.45297664 C584.29982562 455.63172917 584.30034961 454.8104817 584.30088948 453.96434794 C584.31547664 430.86017612 584.32375353 407.7560089 584.31913948 384.65183258 C584.31896753 383.78050928 584.31879557 382.90918598 584.31861841 382.01145894 C584.31772949 377.59505331 584.31678468 373.1786477 584.3158204 368.76224209 C584.31562936 367.88509951 584.31543833 367.00795693 584.31524151 366.10423427 C584.31485442 364.33043849 584.31446409 362.55664271 584.31407053 360.78284694 C584.30809932 333.17710887 584.32354256 305.57145461 584.35567665 277.96573544 C584.39173274 246.9642792 584.41108918 215.96287611 584.40613794 184.96139759 C584.40566795 181.65745859 584.4052577 178.35351959 584.40488625 175.04958057 C584.40478386 174.23604198 584.40468147 173.42250339 584.40457598 172.58431211 C584.40337993 160.29010392 584.41536428 147.99595304 584.43403053 135.70176029 C584.4552421 121.72421614 584.45914345 107.74679243 584.43973094 93.76924295 C584.42938463 85.94302389 584.43292561 78.11709835 584.4562618 70.29090567 C584.47212498 64.45458853 584.46199184 58.61850843 584.44154078 52.7821989 C584.43732845 50.41550027 584.44164243 48.04876868 584.45513672 45.68210477 C584.47218339 42.4751192 584.45868998 39.26968489 584.43730354 36.0627594 C584.44958107 35.13499125 584.46185859 34.20722311 584.47450817 33.25134078 C584.41418764 28.94788081 584.18287389 26.02771764 581.46220827 22.58212322 C578.17850002 19.55407733 575.97573965 19.01550797 571.67130774 19.00985587 C570.82182048 19.00632745 569.97233322 19.00279903 569.09710392 18.99916369 C568.16174058 19.00036146 567.22637725 19.00155924 566.26266956 19.00279331 C565.26655351 19.00014149 564.27043745 18.99748966 563.24413607 18.99475747 C559.87360734 18.9870384 556.50311489 18.98650431 553.1325779 18.98590755 C550.70475675 18.98189467 548.27693628 18.97745674 545.84911662 18.972628 C539.8554725 18.96189715 533.86183959 18.95590202 527.86818852 18.95191912 C520.69180439 18.94691306 513.51543164 18.93618612 506.33905423 18.92543739 C488.99295824 18.89979907 471.64685782 18.884771 454.30074833 18.87192692 C448.55699172 18.86767336 442.81323543 18.86310767 437.06947923 18.8583436 C406.54297975 18.83308682 376.01647974 18.81103419 345.48997211 18.79861546 C338.41631697 18.79569403 331.34266184 18.79272653 324.26900673 18.78971004 C322.95076303 18.78915368 322.95076303 18.78915368 321.60588814 18.78858608 C293.10028 18.77642554 264.59473352 18.74547316 236.08915435 18.70378852 C206.79488114 18.66102852 177.50064051 18.63437805 148.20633525 18.62914074 C144.07133492 18.62840026 139.93633465 18.62748957 135.80133438 18.62648296 C134.58058699 18.62619704 134.58058699 18.62619704 133.33517804 18.62590534 C120.22305608 18.62238793 107.11101123 18.60207257 93.99891761 18.57568633 C80.82663805 18.54957803 67.65444785 18.54179886 54.48214611 18.55278762 C46.65148432 18.55877644 38.82112501 18.55079007 30.99050884 18.52295678 C25.15081995 18.50373176 19.31135253 18.51048222 13.47165022 18.52752595 C11.10354075 18.5303446 8.7354033 18.52462509 6.3673391 18.50971301 C3.15844366 18.49073441 -0.04891878 18.50231054 -3.25777721 18.52177525 C-4.18611705 18.50892603 -5.11445689 18.4960768 -6.07092825 18.48283821 C-12.18332594 18.56480797 -14.95959297 19.66313628 -19.18631554 24.1398077 Z " fill="#FAFAFA" transform="translate(38.18631553649902,1.8601922988891602)"/>
</svg>
